<?xml version="1.0" encoding="utf-8"?>
<!-- Generator: Adobe Illustrator 19.1.0, SVG Export Plug-In . SVG Version: 6.00 Build 0)  -->
<svg version="1.1" id="Layer_1" xmlns="http://www.w3.org/2000/svg" xmlns:xlink="http://www.w3.org/1999/xlink" x="0px" y="0px"
	 viewBox="0 0 733.1 900.3" style="enable-background:new 0 0 733.1 900.3;" xml:space="preserve">
<g id="apple-icon">
	<g id="g186" transform="matrix(54.85033,0,0,-54.85033,-1411.313,6454.729)">
		<path id="path188" d="M36.9,109c0,2.1,1.7,3.1,1.8,3.1c-1,1.4-2.5,1.6-3,1.6c-1.3,0.1-2.5-0.8-3.1-0.8s-1.6,0.7-2.7,0.7
			c-1.4,0-2.7-0.8-3.4-2.1c-1.4-2.5-0.4-6.2,1-8.3c0.7-1,1.5-2.1,2.6-2.1c1,0,1.4,0.7,2.7,0.7c1.3,0,1.6-0.7,2.7-0.7
			c1.1,0,1.8,1,2.5,2c0.8,1.2,1.1,2.3,1.1,2.3C39.1,105.6,36.9,106.5,36.9,109"/>
	</g>
	<path id="path190" d="M498.9,143.8c31.4-38.1,52.7-91,46.8-143.8c-45.3,1.8-100.1,30.2-132.6,68.3c-29.1,33.7-54.6,87.6-47.7,139.2
		C415.9,211.4,467.5,181.8,498.9,143.8"/>
</g>
</svg>
